<?xml version="1.0" standalone="no"?>
<!DOCTYPE svg PUBLIC "-//W3C//DTD SVG 20010904//EN"
 "http://www.w3.org/TR/2001/REC-SVG-20010904/DTD/svg10.dtd">
<svg version="1.0" xmlns="http://www.w3.org/2000/svg"
 width="800.000000pt" height="800.000000pt" viewBox="0 0 800.000000 800.000000"
 preserveAspectRatio="xMidYMid meet">
<metadata>
Created by potrace 1.11, written by Peter Selinger 2001-2013
</metadata>
<g transform="translate(0.000000,800.000000) scale(0.100000,-0.100000)"
fill="#000000" stroke="none">
<path d="M3705 7989 c-712 -56 -1377 -290 -1960 -687 -934 -636 -1559 -1651
-1709 -2772 -131 -978 104 -1967 662 -2785 636 -934 1651 -1559 2772 -1709
978 -131 1967 104 2785 662 934 636 1559 1651 1709 2772 131 978 -104 1967
-662 2785 -636 934 -1651 1559 -2772 1709 -260 35 -582 45 -825 25z m-230
-3234 c426 -664 563 -871 571 -862 7 7 281 392 609 857 329 465 605 853 615
863 13 15 30 17 87 15 l70 -3 -628 -910 -629 -910 0 -717 0 -718 -230 0 -230
0 0 719 0 720 -522 833 c-286 458 -543 868 -570 911 l-48 77 172 -1 173 0 560
-874z"/>
</g>
</svg>
